# File created by Blade
# Date/Time:  Mon Sep 22 16:45:27 2014
# Frame Rate: 120.000 fps
#------------------------------------------------------
:FULLY-SPECIFIED
:DEGREES
2160
root 4.631005 38.185110 -0.384846 0.673331 30.944856 33.976169
RightUpLeg 10.538804 -17.120611 -28.329805
RightLeg 21.434766 -0.000000 -0.000000
RightFoot -28.365677 -28.880534 19.674944
RightToeBase 6.397300 -0.000000 -0.000000
LeftUpLeg -51.645833 33.288568 9.810601
LeftLeg 134.770304 -0.000000 -0.000000
LeftFoot 28.411748 11.028371 -22.480592
LeftToeBase 0.431413 -0.000000 -0.000000
Spine 24.358202 -9.414965 -17.906912
RightShoulder -0.287999 -14.914885 -18.440718
RightArm 9.239225 30.508449 47.651791
RightForeArm 8.724668 -0.000000 108.247559
RightHand 6.932230 -0.000000 -45.308422
RightHandThumb1 -24.326973 -0.000000 -32.862282
LeftShoulder -24.220191 35.275933 -10.164575
LeftArm 36.183935 8.321312 -57.128058
LeftForeArm 34.613905 0.000000 101.340897
LeftHand -14.413126 -0.000000 -7.207697
LeftHandThumb1 -26.253704 0.000000 33.147579
Head 5.552431 -11.054023 -10.666058
2161
root 4.655712 38.179043 -0.390796 0.609742 30.838109 33.970585
RightUpLeg 10.460940 -16.994187 -28.356411
RightLeg 21.575669 -0.000000 -0.000000
RightFoot -28.362033 -28.968649 19.604343
RightToeBase 6.310339 -0.000000 -0.000000
LeftUpLeg -52.061420 33.286329 9.316006
LeftLeg 134.940486 -0.000000 -0.000000
LeftFoot 28.309426 11.279729 -22.911277
LeftToeBase 1.095870 -0.000000 -0.000000
Spine 24.355266 -9.345173 -17.665449
RightShoulder -0.337170 -14.880725 -18.541155
RightArm 9.286639 30.628008 47.534325
RightForeArm 8.812623 -0.000000 108.315463
RightHand 6.932708 -0.000000 -45.252104
RightHandThumb1 -24.326973 -0.000000 -32.862282
LeftShoulder -24.226795 35.320871 -10.229587
LeftArm 36.395167 8.495378 -57.147828
LeftForeArm 34.628962 -0.000000 101.481470
LeftHand -14.582472 -0.000000 -7.137708
LeftHandThumb1 -26.253704 0.000000 33.147579
Head 5.450756 -11.078314 -10.873598
2162
root 4.678604 38.170880 -0.395385 0.537919 30.730316 33.930168
RightUpLeg 10.356157 -16.853428 -28.329480
RightLeg 21.737859 -0.000000 -0.000000
RightFoot -28.344543 -29.119664 19.493639
RightToeBase 6.204443 -0.000000 -0.000000
LeftUpLeg -52.485397 33.270620 8.907093
LeftLeg 135.010594 -0.000000 -0.000000
LeftFoot 28.118652 11.508493 -23.307328
LeftToeBase 1.440769 -0.000000 -0.000000
Spine 24.360006 -9.325085 -17.408128
RightShoulder -0.364003 -14.757709 -18.637886
RightArm 9.249226 30.656446 47.305256
RightForeArm 8.929368 -0.000000 108.400117
RightHand 6.944555 0.000000 -45.208255
RightHandThumb1 -24.326973 -0.000000 -32.862282
LeftShoulder -24.270196 35.236407 -10.287713
LeftArm 36.518061 8.716190 -57.142195
LeftForeArm 34.642368 0.000000 101.606097
LeftHand -14.386545 0.000000 -7.150655
LeftHandThumb1 -26.253704 0.000000 33.147579
Head 5.296021 -11.046785 -11.082421
2163
root 4.699371 38.162010 -0.399754 0.441765 30.641952 33.878705
RightUpLeg 10.281809 -16.661238 -28.270217
RightLeg 21.883183 -0.000000 -0.000000
RightFoot -28.353164 -29.327164 19.419463
RightToeBase 6.112423 -0.000000 -0.000000
LeftUpLeg -52.882840 33.205854 8.593640
LeftLeg 134.966605 -0.000000 -0.000000
LeftFoot 27.862806 11.729635 -23.855040
LeftToeBase 1.753809 -0.000000 -0.000000
Spine 24.404760 -9.333809 -17.168961
RightShoulder -0.351768 -14.686501 -18.770510
RightArm 9.260376 30.742849 47.171547
RightForeArm 8.993313 -0.000000 108.475965
RightHand 6.934531 0.000000 -45.134837
RightHandThumb1 -24.326973 -0.000000 -32.862282
LeftShoulder -24.323535 35.204325 -10.336183
LeftArm 36.683812 8.910196 -57.151561
LeftForeArm 34.579016 -0.000000 101.762295
LeftHand -14.253927 -0.000000 -7.250662
LeftHandThumb1 -26.253704 0.000000 33.147579
Head 5.134376 -10.993415 -11.257945
2164
root 4.715883 38.151425 -0.402620 0.315953 30.552099 33.794638
RightUpLeg 10.225405 -16.436221 -28.170290
RightLeg 22.012695 -0.000000 -0.000000
RightFoot -28.406778 -29.424918 19.498339
RightToeBase 5.879293 -0.000000 -0.000000
LeftUpLeg -53.269699 33.120911 8.370359
LeftLeg 134.797576 -0.000000 -0.000000
LeftFoot 27.545229 11.963181 -24.516296
LeftToeBase 1.699676 -0.000000 -0.000000
Spine 24.472216 -9.301251 -16.912862
RightShoulder -0.405715 -14.597468 -18.863379
RightArm 9.306000 30.784804 47.033710
RightForeArm 9.071315 0.000000 108.519845
RightHand 6.940035 -0.000000 -45.052318
RightHandThumb1 -24.326973 -0.000000 -32.862282
LeftShoulder -24.362374 35.206017 -10.343877
LeftArm 36.934130 9.092395 -57.156112
LeftForeArm 34.530100 0.000000 101.878553
LeftHand -14.098311 0.000000 -7.622600
LeftHandThumb1 -26.253704 0.000000 33.147579
Head 4.939232 -10.971264 -11.375222
2165
root 4.732617 38.143355 -0.403580 0.182476 30.466905 33.747807
RightUpLeg 10.214780 -16.215367 -28.111790
RightLeg 22.112760 -0.000000 -0.000000
RightFoot -28.386349 -29.689277 19.345776
RightToeBase 5.897709 -0.000000 -0.000000
LeftUpLeg -53.609407 33.006935 8.192251
LeftLeg 134.496332 -0.000000 -0.000000
LeftFoot 27.177095 12.142586 -25.161248
LeftToeBase 1.910850 -0.000000 -0.000000
Spine 24.584593 -9.287957 -16.722707
RightShoulder -0.416959 -14.550092 -18.957336
RightArm 9.363832 30.872868 46.913605
RightForeArm 9.140258 -0.000000 108.590348
RightHand 6.915865 -0.000000 -44.992093
RightHandThumb1 -24.326973 -0.000000 -32.862282
LeftShoulder -24.419403 35.194333 -10.365665
LeftArm 37.179852 9.289274 -57.086365
LeftForeArm 34.491158 -0.000000 101.986643
LeftHand -14.028992 -0.000000 -7.657570
LeftHandThumb1 -26.253704 0.000000 33.147579
Head 4.750149 -10.926337 -11.479144
2166
root 4.747970 38.136886 -0.403672 0.055961 30.382369 33.730609
RightUpLeg 10.210787 -15.984822 -28.077094
RightLeg 22.220342 -0.000000 -0.000000
RightFoot -28.400931 -29.909877 19.211866
RightToeBase 5.955239 -0.000000 -0.000000
LeftUpLeg -53.918894 32.884269 8.051208
LeftLeg 134.050255 -0.000000 -0.000000
LeftFoot 26.790643 12.305352 -25.882717
LeftToeBase 1.798585 -0.000000 -0.000000
Spine 24.704370 -9.280842 -16.583458
RightShoulder -0.404383 -14.458015 -19.056419
RightArm 9.371802 30.915486 46.780817
RightForeArm 9.218966 0.000000 108.671095
RightHand 6.898746 -0.000000 -44.888615
RightHandThumb1 -24.326973 -0.000000 -32.862282
LeftShoulder -24.457922 35.181223 -10.373576
LeftArm 37.437641 9.500136 -56.966464
LeftForeArm 34.616940 -0.000000 102.088032
LeftHand -14.097049 0.000000 -7.531823
LeftHandThumb1 -26.253704 0.000000 33.147579
Head 4.565059 -10.900839 -11.549200
